<?xml version="1.0" encoding="utf-8"?>
<svg version="1.1" xmlns:xlink="http://www.w3.org/1999/xlink" width="20px" height="20px" xmlns="http://www.w3.org/2000/svg">
  <g transform="matrix(1 0 0 1 -960 -268 )">
    <path d="M 19.5286195286195 14.9494949494949  C 19.8428731762065 15.2637485970819  20 15.645342312009  20 16.0942760942761  C 20 16.5432098765432  19.8428731762065 16.9248035914703  19.5286195286195 17.2390572390572  L 17.2390572390572 19.5286195286195  C 16.9248035914703 19.8428731762065  16.5432098765432 20  16.0942760942761 20  C 15.645342312009 20  15.2637485970819 19.8428731762065  14.9494949494949 19.5286195286195  L 10 14.5791245791246  L 5.05050505050505 19.5286195286195  C 4.73625140291807 19.8428731762065  4.35465768799102 20  3.90572390572391 20  C 3.45679012345679 20  3.07519640852974 19.8428731762065  2.76094276094276 19.5286195286195  L 0.471380471380471 17.2390572390572  C 0.157126823793491 16.9248035914703  0 16.5432098765432  0 16.0942760942761  C 0 15.645342312009  0.157126823793491 15.2637485970819  0.471380471380471 14.9494949494949  L 5.42087542087542 10  L 0.471380471380471 5.05050505050505  C 0.157126823793491 4.73625140291807  0 4.35465768799102  0 3.90572390572391  C 0 3.45679012345679  0.157126823793491 3.07519640852974  0.471380471380471 2.76094276094276  L 2.76094276094276 0.471380471380471  C 3.07519640852974 0.15712682379349  3.45679012345679 0  3.90572390572391 0  C 4.35465768799102 0  4.73625140291807 0.15712682379349  5.05050505050505 0.471380471380471  L 10 5.42087542087542  L 14.9494949494949 0.471380471380471  C 15.2637485970819 0.15712682379349  15.645342312009 0  16.0942760942761 0  C 16.5432098765432 0  16.9248035914703 0.15712682379349  17.2390572390572 0.471380471380471  L 19.5286195286195 2.76094276094276  C 19.8428731762065 3.07519640852974  20 3.45679012345679  20 3.90572390572391  C 20 4.35465768799102  19.8428731762065 4.73625140291807  19.5286195286195 5.05050505050505  L 14.5791245791246 10  L 19.5286195286195 14.9494949494949  Z " fill-rule="nonzero" fill="#000000" stroke="none" transform="matrix(1 0 0 1 960 268 )" />
  </g>
</svg>