<?xml version="1.0" encoding="utf-8"?>
<svg version="1.1" xmlns:xlink="http://www.w3.org/1999/xlink" width="14px" height="14px" xmlns="http://www.w3.org/2000/svg">
  <g transform="matrix(1 0 0 1 -726 -361 )">
    <path d="M 7.93880208333333 9.56119791666667  C 7.99348958333333 9.61588541666667  8.02083333333333 9.68576388888889  8.02083333333333 9.77083333333333  L 8.02083333333333 11.2291666666667  C 8.02083333333333 11.3142361111111  7.99348958333333 11.3841145833333  7.93880208333333 11.4388020833333  C 7.88411458333333 11.4934895833333  7.81423611111111 11.5208333333333  7.72916666666667 11.5208333333333  L 6.27083333333333 11.5208333333333  C 6.18576388888889 11.5208333333333  6.11588541666667 11.4934895833333  6.06119791666667 11.4388020833333  C 6.00651041666667 11.3841145833333  5.97916666666667 11.3142361111111  5.97916666666667 11.2291666666667  L 5.97916666666667 9.77083333333333  C 5.97916666666667 9.68576388888889  6.00651041666667 9.61588541666667  6.06119791666667 9.56119791666667  C 6.11588541666667 9.50651041666667  6.18576388888889 9.47916666666667  6.27083333333333 9.47916666666667  L 7.72916666666667 9.47916666666667  C 7.81423611111111 9.47916666666667  7.88411458333333 9.50651041666667  7.93880208333333 9.56119791666667  Z M 9.35611979166667 3.294921875  C 10.021484375 3.83875868055555  10.3541666666667 4.49045138888889  10.3541666666667 5.25  C 10.3541666666667 5.55381944444444  10.30859375 5.82725694444444  10.2174479166667 6.0703125  C 10.1263020833333 6.31336805555555  9.98806423611111 6.52300347222222  9.802734375 6.69921875  C 9.61740451388889 6.87543402777778  9.45941840277778 7.00911458333333  9.32877604166667 7.10026041666667  C 9.19813368055556 7.19140625  9.01736111111111 7.30078125  8.78645833333333 7.42838541666667  C 8.59201388888889 7.53776041666667  8.45073784722222 7.62282986111111  8.36263020833333 7.68359375  C 8.27452256944444 7.74435763888889  8.19552951388889 7.81727430555556  8.12565104166667 7.90234375  C 8.05577256944444 7.98741319444444  8.02083333333333 8.07552083333333  8.02083333333333 8.16666666666667  L 8.02083333333333 8.45833333333333  C 8.02083333333333 8.54340277777778  7.99348958333333 8.61328125  7.93880208333333 8.66796875  C 7.88411458333333 8.72265625  7.81423611111111 8.75  7.72916666666667 8.75  L 6.27083333333333 8.75  C 6.18576388888889 8.75  6.11588541666667 8.72265625  6.06119791666667 8.66796875  C 6.00651041666667 8.61328125  5.97916666666667 8.54340277777778  5.97916666666667 8.45833333333333  L 5.97916666666667 7.83854166666667  C 5.97916666666667 7.62586805555556  6.01106770833333 7.42990451388889  6.07486979166667 7.25065104166667  C 6.138671875 7.07139756944444  6.21158854166667 6.92708333333333  6.29361979166667 6.81770833333333  C 6.37565104166667 6.70833333333333  6.494140625 6.60047743055555  6.64908854166667 6.494140625  C 6.80403645833333 6.38780381944444  6.92860243055556 6.31032986111111  7.02278645833333 6.26171875  C 7.11697048611111 6.21310763888889  7.25217013888889 6.14930555555555  7.42838541666667 6.0703125  C 7.75043402777778 5.91840277777778  7.97829861111111 5.78776041666667  8.11197916666667 5.67838541666667  C 8.24565972222222 5.56901041666667  8.3125 5.42013888888889  8.3125 5.23177083333333  C 8.3125 4.9765625  8.18033854166667 4.75933159722222  7.916015625 4.580078125  C 7.65169270833333 4.40082465277778  7.36154513888889 4.31119791666667  7.04557291666667 4.31119791666667  C 6.70529513888889 4.31119791666667  6.41666666666667 4.39322916666667  6.1796875 4.55729166666667  C 6.00347222222222 4.67881944444444  5.76041666666667 4.93098958333333  5.45052083333333 5.31380208333333  C 5.39583333333333 5.38671875  5.31987847222222 5.42317708333333  5.22265625 5.42317708333333  C 5.15581597222222 5.42317708333333  5.09809027777778 5.40494791666667  5.04947916666667 5.36848958333333  L 4.06510416666667 4.62109375  C 4.00434027777778 4.57855902777778  3.96788194444444 4.51779513888889  3.95572916666667 4.43880208333333  C 3.94357638888889 4.35980902777778  3.95876736111111 4.28993055555555  4.00130208333333 4.22916666666667  C 4.74262152777778 3.0625  5.80295138888889 2.47916666666667  7.18229166666667 2.47916666666667  C 7.96614583333333 2.47916666666667  8.69075520833333 2.75108506944444  9.35611979166667 3.294921875  Z M 9.26497395833333 1.63151041666667  C 8.544921875 1.32161458333333  7.78993055555556 1.16666666666667  7 1.16666666666667  C 6.21006944444444 1.16666666666667  5.455078125 1.32161458333333  4.73502604166667 1.63151041666667  C 4.01497395833333 1.94140625  3.39518229166667 2.35611979166667  2.87565104166667 2.87565104166667  C 2.35611979166667 3.39518229166667  1.94140625 4.01497395833333  1.63151041666667 4.73502604166667  C 1.32161458333333 5.455078125  1.16666666666667 6.21006944444444  1.16666666666667 7  C 1.16666666666667 7.78993055555556  1.32161458333333 8.544921875  1.63151041666667 9.26497395833333  C 1.94140625 9.98502604166667  2.35611979166667 10.6048177083333  2.87565104166667 11.1243489583333  C 3.39518229166667 11.6438802083333  4.01497395833333 12.05859375  4.73502604166667 12.3684895833333  C 5.455078125 12.6783854166667  6.21006944444444 12.8333333333333  7 12.8333333333333  C 7.78993055555556 12.8333333333333  8.544921875 12.6783854166667  9.26497395833333 12.3684895833333  C 9.98502604166667 12.05859375  10.6048177083333 11.6438802083333  11.1243489583333 11.1243489583333  C 11.6438802083333 10.6048177083333  12.05859375 9.98502604166667  12.3684895833333 9.26497395833333  C 12.6783854166667 8.544921875  12.8333333333333 7.78993055555556  12.8333333333333 7  C 12.8333333333333 6.21006944444444  12.6783854166667 5.455078125  12.3684895833333 4.73502604166667  C 12.05859375 4.01497395833333  11.6438802083333 3.39518229166667  11.1243489583333 2.87565104166667  C 10.6048177083333 2.35611979166667  9.98502604166667 1.94140625  9.26497395833333 1.63151041666667  Z M 13.0611979166667 3.486328125  C 13.6870659722222 4.55881076388889  14 5.73003472222222  14 7  C 14 8.26996527777778  13.6870659722222 9.44118923611111  13.0611979166667 10.513671875  C 12.4353298611111 11.5861545138889  11.5861545138889 12.4353298611111  10.513671875 13.0611979166667  C 9.44118923611111 13.6870659722222  8.26996527777778 14  7 14  C 5.73003472222222 14  4.55881076388889 13.6870659722222  3.486328125 13.0611979166667  C 2.41384548611111 12.4353298611111  1.56467013888889 11.5861545138889  0.938802083333333 10.513671875  C 0.312934027777778 9.44118923611111  0 8.26996527777778  0 7  C 0 5.73003472222222  0.312934027777778 4.55881076388889  0.938802083333333 3.486328125  C 1.56467013888889 2.41384548611111  2.41384548611111 1.56467013888889  3.486328125 0.938802083333333  C 4.55881076388889 0.312934027777777  5.73003472222222 0  7 0  C 8.26996527777778 0  9.44118923611111 0.312934027777777  10.513671875 0.938802083333333  C 11.5861545138889 1.56467013888889  12.4353298611111 2.41384548611111  13.0611979166667 3.486328125  Z " fill-rule="nonzero" fill="#02a7f0" stroke="none" transform="matrix(1 0 0 1 726 361 )" />
  </g>
</svg>