<?xml version="1.0" encoding="utf-8"?>
<svg version="1.1" xmlns:xlink="http://www.w3.org/1999/xlink" width="19px" height="14px" xmlns="http://www.w3.org/2000/svg">
  <g transform="matrix(1 0 0 1 -449 -471 )">
    <path d="M 18.6567741935484 1.93265993265993  C 18.8855913978495 2.15263748597082  19 2.41975308641975  19 2.73400673400673  C 19 3.04826038159371  18.8855913978495 3.31537598204265  18.6567741935484 3.53535353535353  L 9.78193548387097 12.0673400673401  L 8.11483870967742 13.6700336700337  C 7.88602150537634 13.8900112233446  7.60817204301075 14  7.28129032258065 14  C 6.95440860215054 14  6.67655913978495 13.8900112233446  6.44774193548387 13.6700336700337  L 4.78064516129032 12.0673400673401  L 0.343225806451613 7.8013468013468  C 0.114408602150538 7.58136924803591  0 7.31425364758698  0 7  C 0 6.68574635241302  0.114408602150538 6.41863075196409  0.343225806451613 6.1986531986532  L 2.01032258064516 4.5959595959596  C 2.23913978494624 4.37598204264871  2.51698924731183 4.26599326599326  2.84387096774194 4.26599326599327  C 3.17075268817204 4.26599326599326  3.44860215053763 4.37598204264871  3.67741935483871 4.5959595959596  L 7.28129032258065 8.07239057239057  L 15.3225806451613 0.32996632996633  C 15.5513978494624 0.109988776655443  15.829247311828 0  16.1561290322581 0  C 16.4830107526882 0  16.7608602150538 0.109988776655443  16.9896774193548 0.32996632996633  L 18.6567741935484 1.93265993265993  Z " fill-rule="nonzero" fill="#70b603" stroke="none" transform="matrix(1 0 0 1 449 471 )" />
  </g>
</svg>