<?xml version="1.0" encoding="utf-8"?>
<svg version="1.1" xmlns:xlink="http://www.w3.org/1999/xlink" width="12px" height="13px" xmlns="http://www.w3.org/2000/svg">
  <g transform="matrix(1 0 0 1 -263 -177 )">
    <path d="M 7.1055900621118 6.20040080160321  C 7.18840579710145 6.2872411489646  7.22981366459627 6.38710754843019  7.22981366459627 6.5  C 7.22981366459627 6.61289245156981  7.18840579710145 6.7127588510354  7.1055900621118 6.79959919839679  L 1.3167701863354 12.8697394789579  C 1.23395445134576 12.9565798263193  1.13871635610766 13  1.03105590062112 13  C 0.923395445134576 13  0.82815734989648 12.9565798263193  0.745341614906832 12.8697394789579  L 0.124223602484472 12.2184368737475  C 0.041407867494824 12.1315965263861  0 12.0317301269205  0 11.9188376753507  C 0 11.8059452237809  0.041407867494824 11.7060788243153  0.124223602484472 11.6192384769539  L 5.00621118012422 6.5  L 0.124223602484472 1.38076152304609  C 0.041407867494824 1.2939211756847  0 1.1940547762191  0 1.0811623246493  C 0 0.968269873079491  0.041407867494824 0.868403473613893  0.124223602484472 0.781563126252504  L 0.745341614906832 0.130260521042084  C 0.82815734989648 0.0434201736806943  0.923395445134576 0  1.03105590062112 0  C 1.13871635610766 0  1.23395445134576 0.0434201736806943  1.3167701863354 0.130260521042084  L 7.1055900621118 6.20040080160321  Z M 11.8757763975155 6.20040080160321  C 11.9585921325052 6.2872411489646  12 6.38710754843019  12 6.5  C 12 6.61289245156981  11.9585921325052 6.7127588510354  11.8757763975155 6.79959919839679  L 6.08695652173913 12.8697394789579  C 6.00414078674948 12.9565798263193  5.90890269151139 13  5.80124223602484 13  C 5.6935817805383 13  5.59834368530021 12.9565798263193  5.51552795031056 12.8697394789579  L 4.8944099378882 12.2184368737475  C 4.81159420289855 12.1315965263861  4.77018633540373 12.0317301269205  4.77018633540373 11.9188376753507  C 4.77018633540373 11.8059452237809  4.81159420289855 11.7060788243153  4.8944099378882 11.6192384769539  L 9.77639751552795 6.5  L 4.8944099378882 1.38076152304609  C 4.81159420289855 1.2939211756847  4.77018633540373 1.1940547762191  4.77018633540373 1.0811623246493  C 4.77018633540373 0.968269873079491  4.81159420289855 0.868403473613893  4.8944099378882 0.781563126252504  L 5.51552795031056 0.130260521042084  C 5.59834368530021 0.0434201736806943  5.6935817805383 0  5.80124223602484 0  C 5.90890269151139 0  6.00414078674948 0.0434201736806943  6.08695652173913 0.130260521042084  L 11.8757763975155 6.20040080160321  Z " fill-rule="nonzero" fill="#ffffff" stroke="none" transform="matrix(1 0 0 1 263 177 )" />
  </g>
</svg>