<?xml version="1.0" encoding="utf-8"?>
<svg version="1.1" xmlns:xlink="http://www.w3.org/1999/xlink" width="21px" height="21px" xmlns="http://www.w3.org/2000/svg">
  <g transform="matrix(1 0 0 1 -989 -1084 )">
    <path d="M 20.5050505050505 15.6969696969697  C 20.8350168350168 16.026936026936  21 16.4276094276094  21 16.8989898989899  C 21 17.3703703703704  20.8350168350168 17.7710437710438  20.5050505050505 18.1010101010101  L 18.1010101010101 20.5050505050505  C 17.7710437710438 20.8350168350168  17.3703703703704 21  16.8989898989899 21  C 16.4276094276094 21  16.026936026936 20.8350168350168  15.6969696969697 20.5050505050505  L 10.5 15.3080808080808  L 5.3030303030303 20.5050505050505  C 4.97306397306397 20.8350168350168  4.57239057239057 21  4.1010101010101 21  C 3.62962962962963 21  3.22895622895623 20.8350168350168  2.8989898989899 20.5050505050505  L 0.494949494949495 18.1010101010101  C 0.164983164983165 17.7710437710438  0 17.3703703703704  0 16.8989898989899  C 0 16.4276094276094  0.164983164983165 16.026936026936  0.494949494949495 15.6969696969697  L 5.69191919191919 10.5  L 0.494949494949495 5.3030303030303  C 0.164983164983165 4.97306397306397  0 4.57239057239057  0 4.1010101010101  C 0 3.62962962962963  0.164983164983165 3.22895622895623  0.494949494949495 2.8989898989899  L 2.8989898989899 0.494949494949495  C 3.22895622895623 0.164983164983164  3.62962962962963 0  4.1010101010101 0  C 4.57239057239057 0  4.97306397306397 0.164983164983164  5.3030303030303 0.494949494949495  L 10.5 5.69191919191919  L 15.6969696969697 0.494949494949495  C 16.026936026936 0.164983164983164  16.4276094276094 0  16.8989898989899 0  C 17.3703703703704 0  17.7710437710438 0.164983164983164  18.1010101010101 0.494949494949495  L 20.5050505050505 2.8989898989899  C 20.8350168350168 3.22895622895623  21 3.62962962962963  21 4.1010101010101  C 21 4.57239057239057  20.8350168350168 4.97306397306397  20.5050505050505 5.3030303030303  L 15.3080808080808 10.5  L 20.5050505050505 15.6969696969697  Z " fill-rule="nonzero" fill="#ffffff" stroke="none" transform="matrix(1 0 0 1 989 1084 )" />
  </g>
</svg>