<?xml version="1.0" encoding="utf-8"?>
<svg version="1.1" xmlns:xlink="http://www.w3.org/1999/xlink" width="25px" height="21px" xmlns="http://www.w3.org/2000/svg">
  <defs>
    <mask fill="white" id="clip9">
      <path d="M 13.1138392857143 20.75390625  C 12.9464285714286 20.91796875  12.7418154761905 21  12.5 21  C 12.2581845238095 21  12.0535714285714 20.91796875  11.8861607142857 20.75390625  L 3.18080357142857 12.5234375  C 3.08779761904762 12.4505208333333  2.95991443452381 12.33203125  2.79715401785714 12.16796875  C 2.63439360119048 12.00390625  2.37630208333333 11.7054036458333  2.02287946428571 11.2724609375  C 1.6694568452381 10.8395182291667  1.35323660714286 10.3951822916667  1.07421875 9.939453125  C 0.795200892857143 9.48372395833333  0.546409970238095 8.93229166666667  0.327845982142857 8.28515625  C 0.109281994047619 7.63802083333333  0 7.00911458333333  0 6.3984375  C 0 4.39322916666667  0.590587797619048 2.82552083333333  1.77176339285714 1.6953125  C 2.95293898809524 0.565104166666666  4.58519345238095 0  6.66852678571429 0  C 7.24516369047619 0  7.83342633928571 0.097981770833332  8.43331473214286 0.293945312500001  C 9.033203125 0.489908854166665  9.59123883928571 0.754231770833332  10.107421875 1.0869140625  C 10.6236049107143 1.41959635416667  11.0677083333333 1.73177083333333  11.4397321428571 2.0234375  C 11.811755952381 2.31510416666666  12.1651785714286 2.625  12.5 2.953125  C 12.8348214285714 2.625  13.188244047619 2.31510416666666  13.5602678571429 2.0234375  C 13.9322916666667 1.73177083333333  14.3763950892857 1.41959635416667  14.892578125 1.0869140625  C 15.4087611607143 0.754231770833332  15.966796875 0.489908854166665  16.5666852678571 0.293945312500001  C 17.1665736607143 0.097981770833332  17.7548363095238 0  18.3314732142857 0  C 20.4148065476191 0  22.0470610119048 0.565104166666666  23.2282366071429 1.6953125  C 24.409412202381 2.82552083333333  25 4.39322916666667  25 6.3984375  C 25 8.41276041666667  23.9350818452381 10.4635416666667  21.8052455357143 12.55078125  L 13.1138392857143 20.75390625  Z " fill-rule="evenodd" />
    </mask>
  </defs>
  <g transform="matrix(1 0 0 1 -905 -533 )">
    <path d="M 13.1138392857143 20.75390625  C 12.9464285714286 20.91796875  12.7418154761905 21  12.5 21  C 12.2581845238095 21  12.0535714285714 20.91796875  11.8861607142857 20.75390625  L 3.18080357142857 12.5234375  C 3.08779761904762 12.4505208333333  2.95991443452381 12.33203125  2.79715401785714 12.16796875  C 2.63439360119048 12.00390625  2.37630208333333 11.7054036458333  2.02287946428571 11.2724609375  C 1.6694568452381 10.8395182291667  1.35323660714286 10.3951822916667  1.07421875 9.939453125  C 0.795200892857143 9.48372395833333  0.546409970238095 8.93229166666667  0.327845982142857 8.28515625  C 0.109281994047619 7.63802083333333  0 7.00911458333333  0 6.3984375  C 0 4.39322916666667  0.590587797619048 2.82552083333333  1.77176339285714 1.6953125  C 2.95293898809524 0.565104166666666  4.58519345238095 0  6.66852678571429 0  C 7.24516369047619 0  7.83342633928571 0.097981770833332  8.43331473214286 0.293945312500001  C 9.033203125 0.489908854166665  9.59123883928571 0.754231770833332  10.107421875 1.0869140625  C 10.6236049107143 1.41959635416667  11.0677083333333 1.73177083333333  11.4397321428571 2.0234375  C 11.811755952381 2.31510416666666  12.1651785714286 2.625  12.5 2.953125  C 12.8348214285714 2.625  13.188244047619 2.31510416666666  13.5602678571429 2.0234375  C 13.9322916666667 1.73177083333333  14.3763950892857 1.41959635416667  14.892578125 1.0869140625  C 15.4087611607143 0.754231770833332  15.966796875 0.489908854166665  16.5666852678571 0.293945312500001  C 17.1665736607143 0.097981770833332  17.7548363095238 0  18.3314732142857 0  C 20.4148065476191 0  22.0470610119048 0.565104166666666  23.2282366071429 1.6953125  C 24.409412202381 2.82552083333333  25 4.39322916666667  25 6.3984375  C 25 8.41276041666667  23.9350818452381 10.4635416666667  21.8052455357143 12.55078125  L 13.1138392857143 20.75390625  Z " fill-rule="nonzero" fill="#000000" stroke="none" fill-opacity="0" transform="matrix(1 0 0 1 905 533 )" />
    <path d="M 13.1138392857143 20.75390625  C 12.9464285714286 20.91796875  12.7418154761905 21  12.5 21  C 12.2581845238095 21  12.0535714285714 20.91796875  11.8861607142857 20.75390625  L 3.18080357142857 12.5234375  C 3.08779761904762 12.4505208333333  2.95991443452381 12.33203125  2.79715401785714 12.16796875  C 2.63439360119048 12.00390625  2.37630208333333 11.7054036458333  2.02287946428571 11.2724609375  C 1.6694568452381 10.8395182291667  1.35323660714286 10.3951822916667  1.07421875 9.939453125  C 0.795200892857143 9.48372395833333  0.546409970238095 8.93229166666667  0.327845982142857 8.28515625  C 0.109281994047619 7.63802083333333  0 7.00911458333333  0 6.3984375  C 0 4.39322916666667  0.590587797619048 2.82552083333333  1.77176339285714 1.6953125  C 2.95293898809524 0.565104166666666  4.58519345238095 0  6.66852678571429 0  C 7.24516369047619 0  7.83342633928571 0.097981770833332  8.43331473214286 0.293945312500001  C 9.033203125 0.489908854166665  9.59123883928571 0.754231770833332  10.107421875 1.0869140625  C 10.6236049107143 1.41959635416667  11.0677083333333 1.73177083333333  11.4397321428571 2.0234375  C 11.811755952381 2.31510416666666  12.1651785714286 2.625  12.5 2.953125  C 12.8348214285714 2.625  13.188244047619 2.31510416666666  13.5602678571429 2.0234375  C 13.9322916666667 1.73177083333333  14.3763950892857 1.41959635416667  14.892578125 1.0869140625  C 15.4087611607143 0.754231770833332  15.966796875 0.489908854166665  16.5666852678571 0.293945312500001  C 17.1665736607143 0.097981770833332  17.7548363095238 0  18.3314732142857 0  C 20.4148065476191 0  22.0470610119048 0.565104166666666  23.2282366071429 1.6953125  C 24.409412202381 2.82552083333333  25 4.39322916666667  25 6.3984375  C 25 8.41276041666667  23.9350818452381 10.4635416666667  21.8052455357143 12.55078125  L 13.1138392857143 20.75390625  Z " stroke-width="4" stroke="#000000" fill="none" transform="matrix(1 0 0 1 905 533 )" mask="url(#clip9)" />
  </g>
</svg>