<?xml version="1.0" encoding="utf-8"?>
<svg version="1.1" xmlns:xlink="http://www.w3.org/1999/xlink" width="30px" height="30px" xmlns="http://www.w3.org/2000/svg">
  <g transform="matrix(1 0 0 1 -678 -234 )">
    <path d="M 693 234  C 701.4 234  708 240.6  708 249  C 708 257.4  701.4 264  693 264  C 684.6 264  678 257.4  678 249  C 678 240.6  684.6 234  693 234  Z " fill-rule="nonzero" fill="#d7d7d7" stroke="none" />
    <path d="M 693 234.5  C 701.12 234.5  707.5 240.88  707.5 249  C 707.5 257.12  701.12 263.5  693 263.5  C 684.88 263.5  678.5 257.12  678.5 249  C 678.5 240.88  684.88 234.5  693 234.5  Z " stroke-width="1" stroke="#797979" fill="none" />
  </g>
</svg>