<?xml version="1.0" encoding="utf-8"?>
<svg version="1.1" xmlns:xlink="http://www.w3.org/1999/xlink" width="15px" height="15px" xmlns="http://www.w3.org/2000/svg">
  <g transform="matrix(1 0 0 1 -638 -3337 )">
    <path d="M 9.74609375 9.58984375  C 10.3450520833333 9.02994791666666  11.0546875 8.75  11.875 8.75  C 12.7408854166667 8.75  13.4781901041667 9.05436197916667  14.0869140625 9.6630859375  C 14.6956380208333 10.2718098958333  15 11.0091145833333  15 11.875  C 15 12.7408854166667  14.6956380208333 13.4781901041667  14.0869140625 14.0869140625  C 13.4781901041667 14.6956380208333  12.7408854166667 15  11.875 15  C 11.0091145833333 15  10.2718098958333 14.6956380208333  9.6630859375 14.0869140625  C 9.05436197916667 13.4781901041667  8.75 12.7408854166667  8.75 11.875  C 8.75 11.796875  8.75651041666667 11.6861979166667  8.76953125 11.54296875  L 5.25390625 9.78515625  C 4.65494791666667 10.3450520833333  3.9453125 10.625  3.125 10.625  C 2.25911458333333 10.625  1.52180989583333 10.3206380208333  0.9130859375 9.7119140625  C 0.304361979166667 9.10319010416666  0 8.36588541666667  0 7.5  C 0 6.63411458333333  0.304361979166667 5.89680989583333  0.9130859375 5.2880859375  C 1.52180989583333 4.67936197916667  2.25911458333333 4.375  3.125 4.375  C 3.9453125 4.375  4.65494791666667 4.65494791666667  5.25390625 5.21484375  L 8.76953125 3.45703125  C 8.75651041666667 3.31380208333333  8.75 3.203125  8.75 3.125  C 8.75 2.25911458333333  9.05436197916667 1.52180989583333  9.6630859375 0.913085937500001  C 10.2718098958333 0.304361979166666  11.0091145833333 0  11.875 0  C 12.7408854166667 0  13.4781901041667 0.304361979166666  14.0869140625 0.913085937500001  C 14.6956380208333 1.52180989583333  15 2.25911458333333  15 3.125  C 15 3.99088541666667  14.6956380208333 4.72819010416667  14.0869140625 5.3369140625  C 13.4781901041667 5.94563802083333  12.7408854166667 6.25  11.875 6.25  C 11.0546875 6.25  10.3450520833333 5.97005208333333  9.74609375 5.41015625  L 6.23046875 7.16796875  C 6.24348958333333 7.31119791666667  6.25 7.421875  6.25 7.5  C 6.25 7.578125  6.24348958333333 7.68880208333333  6.23046875 7.83203125  L 9.74609375 9.58984375  Z " fill-rule="nonzero" fill="#02a7f0" stroke="none" transform="matrix(1 0 0 1 638 3337 )" />
  </g>
</svg>