<?xml version="1.0" encoding="utf-8"?>
<svg version="1.1" xmlns:xlink="http://www.w3.org/1999/xlink" width="20px" height="20px" xmlns="http://www.w3.org/2000/svg">
  <g transform="matrix(1 0 0 1 -50 -95 )">
    <path d="M 6.72433035714286 9.70764119601329  C 7.00334821428571 9.37541528239203  7.14285714285714 8.97452934662237  7.14285714285714 8.50498338870432  C 7.14285714285714 8.03543743078627  7.00334821428571 7.63455149501661  6.72433035714286 7.30232558139535  C 6.4453125 6.97009966777409  6.10863095238095 6.80398671096345  5.71428571428571 6.80398671096345  C 5.31994047619048 6.80398671096345  4.98325892857143 6.97009966777409  4.70424107142857 7.30232558139535  C 4.42522321428571 7.63455149501661  4.28571428571429 8.03543743078627  4.28571428571429 8.50498338870432  C 4.28571428571429 8.97452934662237  4.42522321428571 9.37541528239203  4.70424107142857 9.70764119601329  C 4.98325892857143 10.0398671096345  5.31994047619048 10.2059800664452  5.71428571428571 10.2059800664452  C 6.10863095238095 10.2059800664452  6.4453125 10.0398671096345  6.72433035714286 9.70764119601329  Z M 11.0100446428571 9.70764119601329  C 11.2890625 9.37541528239203  11.4285714285714 8.97452934662237  11.4285714285714 8.50498338870432  C 11.4285714285714 8.03543743078627  11.2890625 7.63455149501661  11.0100446428571 7.30232558139535  C 10.7310267857143 6.97009966777409  10.3943452380952 6.80398671096345  10 6.80398671096345  C 9.60565476190476 6.80398671096345  9.26897321428572 6.97009966777409  8.98995535714286 7.30232558139535  C 8.7109375 7.63455149501661  8.57142857142857 8.03543743078627  8.57142857142857 8.50498338870432  C 8.57142857142857 8.97452934662237  8.7109375 9.37541528239203  8.98995535714286 9.70764119601329  C 9.26897321428572 10.0398671096345  9.60565476190476 10.2059800664452  10 10.2059800664452  C 10.3943452380952 10.2059800664452  10.7310267857143 10.0398671096345  11.0100446428571 9.70764119601329  Z M 15.2957589285714 9.70764119601329  C 15.5747767857143 9.37541528239203  15.7142857142857 8.97452934662237  15.7142857142857 8.50498338870432  C 15.7142857142857 8.03543743078627  15.5747767857143 7.63455149501661  15.2957589285714 7.30232558139535  C 15.0167410714286 6.97009966777409  14.6800595238095 6.80398671096345  14.2857142857143 6.80398671096345  C 13.891369047619 6.80398671096345  13.5546875 6.97009966777409  13.2756696428571 7.30232558139535  C 12.9966517857143 7.63455149501661  12.8571428571429 8.03543743078627  12.8571428571429 8.50498338870432  C 12.8571428571429 8.97452934662237  12.9966517857143 9.37541528239203  13.2756696428571 9.70764119601329  C 13.5546875 10.0398671096345  13.891369047619 10.2059800664452  14.2857142857143 10.2059800664452  C 14.6800595238095 10.2059800664452  15.0167410714286 10.0398671096345  15.2957589285714 9.70764119601329  Z M 18.6607142857143 4.23255813953488  C 19.5535714285714 5.53931339977852  20 6.96345514950166  20 8.50498338870432  C 20 10.046511627907  19.5535714285714 11.4706533776301  18.6607142857143 12.7774086378738  C 17.7678571428571 14.0841638981174  16.5550595238095 15.1162790697674  15.0223214285714 15.8737541528239  C 13.4895833333333 16.6312292358804  11.8154761904762 17.0099667774086  10 17.0099667774086  C 9.18154761904762 17.0099667774086  8.39657738095238 16.9302325581395  7.64508928571429 16.7707641196013  C 6.35788690476191 18.3034330011074  4.73958333333333 19.3178294573643  2.79017857142857 19.8139534883721  C 2.40327380952381 19.9025470653378  2.08333333333333 19.9601328903655  1.83035714285714 19.9867109634551  C 1.74107142857143 19.9955703211517  1.65922619047619 19.968992248062  1.58482142857143 19.906976744186  C 1.51041666666667 19.8449612403101  1.46205357142857 19.765227021041  1.43973214285714 19.6677740863787  C 1.40997023809524 19.5348837209302  1.484375 19.3709856035437  1.66294642857143 19.1760797342193  C 1.70014880952381 19.1317829457364  1.7875744047619 19.0365448504983  1.92522321428571 18.890365448505  C 2.06287202380952 18.7441860465116  2.1577380952381 18.640088593577  2.20982142857143 18.578073089701  C 2.26190476190476 18.516057585825  2.34933035714286 18.4031007751938  2.47209821428571 18.2392026578073  C 2.59486607142857 18.0753045404208  2.68415178571429 17.9357696566999  2.73995535714286 17.8205980066445  C 2.79575892857143 17.7054263565891  2.87202380952381 17.5415282392027  2.96875 17.3289036544851  C 3.06547619047619 17.1162790697674  3.13988095238095 16.9036544850498  3.19196428571429 16.6910299003322  C 3.24404761904762 16.4784053156146  3.29799107142857 16.2236987818383  3.35379464285714 15.9269102990033  C 3.40959821428571 15.6301218161683  3.45610119047619 15.3089700996678  3.49330357142857 14.9634551495017  C 2.40699404761905 14.1661129568106  1.5531994047619 13.2070874861573  0.931919642857143 12.0863787375415  C 0.310639880952381 10.9656699889258  0 9.7718715393134  0 8.50498338870432  C 0 6.96345514950166  0.446428571428571 5.53931339977852  1.33928571428571 4.23255813953488  C 2.23214285714286 2.92580287929125  3.44494047619048 1.8936877076412  4.97767857142857 1.13621262458472  C 6.51041666666667 0.37873754152824  8.18452380952381 0  10 0  C 11.8154761904762 0  13.4895833333333 0.37873754152824  15.0223214285714 1.13621262458472  C 16.5550595238095 1.8936877076412  17.7678571428571 2.92580287929125  18.6607142857143 4.23255813953488  Z " fill-rule="nonzero" fill="#f2f2f2" stroke="none" transform="matrix(1 0 0 1 50 95 )" />
  </g>
</svg>