<?xml version="1.0" encoding="utf-8"?>
<svg version="1.1" xmlns:xlink="http://www.w3.org/1999/xlink" width="27px" height="26px" xmlns="http://www.w3.org/2000/svg">
  <g transform="matrix(1 0 0 1 -891 -100 )">
    <path d="M 26.3636363636364 19.4343434343434  C 26.7878787878788 19.8428731762065  27 20.3389450056117  27 20.9225589225589  C 27 21.5061728395062  26.7878787878788 22.0022446689113  26.3636363636364 22.4107744107744  L 23.2727272727273 25.3872053872054  C 22.8484848484849 25.7957351290685  22.3333333333333 26  21.7272727272727 26  C 21.1212121212121 26  20.6060606060606 25.7957351290685  20.1818181818182 25.3872053872054  L 13.5 18.952861952862  L 6.81818181818182 25.3872053872054  C 6.39393939393939 25.7957351290685  5.87878787878788 26  5.27272727272727 26  C 4.66666666666667 26  4.15151515151515 25.7957351290685  3.72727272727273 25.3872053872054  L 0.636363636363636 22.4107744107744  C 0.212121212121212 22.0022446689113  0 21.5061728395062  0 20.9225589225589  C 0 20.3389450056117  0.212121212121212 19.8428731762065  0.636363636363636 19.4343434343434  L 7.31818181818182 13  L 0.636363636363636 6.56565656565656  C 0.212121212121212 6.15712682379349  0 5.66105499438833  0 5.07744107744108  C 0 4.49382716049383  0.212121212121212 3.99775533108866  0.636363636363636 3.58922558922559  L 3.72727272727273 0.612794612794613  C 4.15151515151515 0.204264870931537  4.66666666666667 0  5.27272727272727 0  C 5.87878787878788 0  6.39393939393939 0.204264870931537  6.81818181818182 0.612794612794613  L 13.5 7.04713804713805  L 20.1818181818182 0.612794612794613  C 20.6060606060606 0.204264870931537  21.1212121212121 0  21.7272727272727 0  C 22.3333333333333 0  22.8484848484849 0.204264870931537  23.2727272727273 0.612794612794613  L 26.3636363636364 3.58922558922559  C 26.7878787878788 3.99775533108866  27 4.49382716049383  27 5.07744107744108  C 27 5.66105499438833  26.7878787878788 6.15712682379349  26.3636363636364 6.56565656565656  L 19.6818181818182 13  L 26.3636363636364 19.4343434343434  Z " fill-rule="nonzero" fill="#ffffff" stroke="none" transform="matrix(1 0 0 1 891 100 )" />
  </g>
</svg>