<?xml version="1.0" encoding="utf-8"?>
<svg version="1.1" xmlns:xlink="http://www.w3.org/1999/xlink" width="31px" height="31px" xmlns="http://www.w3.org/2000/svg">
  <defs>
    <mask fill="white" id="clip7">
      <path d="M 0 30  L 0 13.4000000000015  L 0 0  L 30 0  L 30 30  L 0 30  Z " fill-rule="evenodd" />
    </mask>
  </defs>
  <g transform="matrix(1 0 0 1 -574 -462 )">
    <path d="M 0 30  L 0 13.4000000000015  L 0 0  L 30 0  L 30 30  L 0 30  Z " fill-rule="nonzero" fill="#f2f2f2" stroke="none" transform="matrix(1 0 0 1 574 462 )" />
    <path d="M 0 30  L 0 13.4000000000015  L 0 0  L 30 0  L 30 30  L 0 30  Z " stroke-width="2" stroke="#797979" fill="none" transform="matrix(1 0 0 1 574 462 )" mask="url(#clip7)" />
    <path d="M 29.6464466094067 0.353553390593277  L 0.35355339059326 29.6464466094067  M 0.35355339059326 0.353553390593277  L 29.6464466094067 29.6464466094067  " stroke-width="1" stroke="#797979" fill="none" transform="matrix(1 0 0 1 574 462 )" mask="url(#clip7)" />
  </g>
</svg>