<?xml version="1.0" encoding="utf-8"?>
<svg version="1.1" xmlns:xlink="http://www.w3.org/1999/xlink" width="20px" height="20px" xmlns="http://www.w3.org/2000/svg">
  <g transform="matrix(1 0 0 1 -75 -95 )">
    <path d="M 5.419921875 5.56954436450839  C 5.58268229166667 5.37370103916866  5.6640625 5.1119104716227  5.6640625 4.7841726618705  C 5.6640625 4.4564348521183  5.58268229166667 4.19264588329336  5.419921875 3.99280575539568  C 5.25716145833333 3.792965627498  5.04231770833333 3.69304556354916  4.775390625 3.69304556354916  C 4.49544270833333 3.69304556354916  4.248046875 3.79496402877698  4.033203125 3.99880095923261  C 3.818359375 4.20263788968825  3.7109375 4.46442845723421  3.7109375 4.7841726618705  C 3.7109375 5.09592326139089  3.818359375 5.3537170263789  4.033203125 5.55755395683453  C 4.248046875 5.76139088729017  4.49544270833333 5.86330935251798  4.775390625 5.86330935251798  C 5.04231770833333 5.86330935251798  5.25716145833333 5.76538768984812  5.419921875 5.56954436450839  Z M 12.6708984375 11.4748201438849  C 12.8369140625 11.2989608313349  12.919921875 11.0951239008793  12.919921875 10.863309352518  C 12.919921875 10.6394884092726  12.8369140625 10.4396482813749  12.6708984375 10.2637889688249  C 12.5048828125 10.087929656275  12.2916666666667 10  12.03125 10  C 11.85546875 10  11.6943359375 10.089928057554  11.5478515625 10.2697841726619  C 11.4013671875 10.4496402877698  11.328125 10.6474820143885  11.328125 10.863309352518  C 11.328125 11.0871302957634  11.4013671875 11.28896882494  11.5478515625 11.468824940048  C 11.6943359375 11.6486810551559  11.85546875 11.7386091127098  12.03125 11.7386091127098  C 12.2916666666667 11.7386091127098  12.5048828125 11.6506794564349  12.6708984375 11.4748201438849  Z M 10.3759765625 5.56954436450839  C 10.5354817708333 5.37370103916866  10.615234375 5.1119104716227  10.615234375 4.7841726618705  C 10.615234375 4.4564348521183  10.5354817708333 4.19264588329336  10.3759765625 3.99280575539568  C 10.2164713541667 3.792965627498  10.0032552083333 3.69304556354916  9.736328125 3.69304556354916  C 9.45638020833334 3.69304556354916  9.208984375 3.79496402877698  8.994140625 3.99880095923261  C 8.779296875 4.20263788968825  8.671875 4.46442845723421  8.671875 4.7841726618705  C 8.671875 5.09592326139089  8.779296875 5.3537170263789  8.994140625 5.55755395683453  C 9.208984375 5.76139088729017  9.45638020833334 5.86330935251798  9.736328125 5.86330935251798  C 10.0032552083333 5.86330935251798  10.2164713541667 5.76538768984812  10.3759765625 5.56954436450839  Z M 16.5625 11.4748201438849  C 16.7317708333333 11.2989608313349  16.81640625 11.0951239008793  16.81640625 10.863309352518  C 16.81640625 10.6394884092726  16.7317708333333 10.4396482813749  16.5625 10.2637889688249  C 16.3932291666667 10.087929656275  16.181640625 10  15.927734375 10  C 15.751953125 10  15.5908203125 10.089928057554  15.4443359375 10.2697841726619  C 15.2978515625 10.4496402877698  15.224609375 10.6474820143885  15.224609375 10.863309352518  C 15.224609375 11.0871302957634  15.2978515625 11.28896882494  15.4443359375 11.468824940048  C 15.5908203125 11.6486810551559  15.751953125 11.7386091127098  15.927734375 11.7386091127098  C 16.181640625 11.7386091127098  16.3932291666667 11.6506794564349  16.5625 11.4748201438849  Z M 12.8857421875 2.97961630695444  C 13.5725911458333 3.91087130295763  14.0169270833333 4.95203836930456  14.21875 6.1031175059952  C 14.0169270833333 6.07114308553157  13.7890625 6.05515587529976  13.53515625 6.05515587529976  C 12.4348958333333 6.05515587529976  11.4225260416667 6.36290967226219  10.498046875 6.97841726618705  C 9.57356770833334 7.59392486011191  8.84602864583334 8.42725819344524  8.3154296875 9.47841726618705  C 7.78483072916667 10.5295763389289  7.51953125 11.6786570743405  7.51953125 12.9256594724221  C 7.51953125 13.5491606714628  7.59440104166667 14.1566746602718  7.744140625 14.7482014388489  C 7.51627604166667 14.7721822541966  7.294921875 14.7841726618705  7.080078125 14.7841726618705  C 6.91080729166667 14.7841726618705  6.748046875 14.7781774580336  6.591796875 14.7661870503597  C 6.435546875 14.7541966426859  6.25651041666667 14.7282174260592  6.0546875 14.6882494004796  C 5.85286458333333 14.6482813749001  5.7080078125 14.6203037569944  5.6201171875 14.6043165467626  C 5.5322265625 14.5883293365308  5.35481770833333 14.5463629096723  5.087890625 14.4784172661871  C 4.82096354166667 14.4104716227018  4.658203125 14.3685051958433  4.599609375 14.3525179856115  L 2.12890625 15.8752997601918  L 2.83203125 13.2613908872902  C 0.944010416666667 11.638689048761  0 9.68025579536371  0 7.38609112709832  C 0 6.03517186250999  0.3173828125 4.79216626698641  0.9521484375 3.65707434052758  C 1.5869140625 2.52198241406874  2.4462890625 1.62869704236611  3.5302734375 0.977218225419665  C 4.6142578125 0.32573940847322  5.79752604166667 0  7.080078125 0  C 8.22591145833333 0  9.30826822916667 0.263788968824941  10.3271484375 0.79136690647482  C 11.3460286458333 1.3189448441247  12.1988932291667 2.04836131095124  12.8857421875 2.97961630695444  Z M 19.1650390625 9.67026378896882  C 19.7216796875 10.6414868105516  20 11.6946442845723  20 12.8297362110312  C 20 13.7649880095923  19.7770182291667 14.658273381295  19.3310546875 15.5095923261391  C 18.8850911458333 16.3609112709832  18.28125 17.1342925659472  17.51953125 17.8297362110312  L 18.056640625 20  L 16.11328125 18.6930455635492  C 15.13671875 18.9888089528377  14.4270833333333 19.136690647482  13.984375 19.136690647482  C 12.8841145833333 19.136690647482  11.8717447916667 18.8549160671463  10.947265625 18.2913669064748  C 10.0227864583333 17.7278177458034  9.29524739583333 16.9624300559552  8.7646484375 15.9952038369305  C 8.23404947916667 15.0279776179057  7.96875 13.9728217426059  7.96875 12.8297362110312  C 7.96875 11.6866506794564  8.23404947916667 10.6314948041567  8.7646484375 9.66426858513189  C 9.29524739583333 8.69704236610711  10.0227864583333 7.93165467625899  10.947265625 7.36810551558753  C 11.8717447916667 6.80455635491607  12.8841145833333 6.52278177458034  13.984375 6.52278177458034  C 15.0325520833333 6.52278177458034  16.0188802083333 6.80455635491607  16.943359375 7.36810551558753  C 17.8678385416667 7.93165467625899  18.6083984375 8.69904076738609  19.1650390625 9.67026378896882  Z " fill-rule="nonzero" fill="#d7d7d7" stroke="none" transform="matrix(1 0 0 1 75 95 )" />
  </g>
</svg>