<?xml version="1.0" encoding="utf-8"?>
<svg version="1.1" xmlns:xlink="http://www.w3.org/1999/xlink" width="20px" height="20px" xmlns="http://www.w3.org/2000/svg">
  <g transform="matrix(1 0 0 1 -100 -95 )">
    <path d="M 6.83212493028444 15.9986225895317  C 7.13329615170106 15.8746556473829  7.36568135341142 15.6565656565657  7.5292805354155 15.3443526170799  C 7.68544339096486 15.0321395775941  7.72634318646589 14.7153351698806  7.65197992191857 14.3939393939394  C 7.57761665737126 14.0725436179982  7.4102993121398 13.8429752066116  7.1500278862242 13.7052341597796  C 6.89719278676334 13.5766758494031  6.62576687116564 13.5720844811754  6.33575013943112 13.6914600550964  C 6.0457334076966 13.8108356290174  5.82264361405466 14.0220385674931  5.6664807585053 14.3250688705234  C 5.50288157650121 14.6372819100092  5.45454545454546 14.9517906336088  5.52147239263804 15.2685950413223  C 5.58839933073062 15.5853994490358  5.74828034950734 15.8172635445363  6.00111544896821 15.9641873278237  C 6.25395054842908 16.1111111111111  6.53095370886782 16.1225895316804  6.83212493028444 15.9986225895317  Z M 8.33240379252649 13.9325068870523  C 8.44394868934746 13.8820018365473  8.52574828034951 13.7970615243343  8.57780256553263 13.6776859504132  C 8.63729317717048 13.5583103764922  8.65030674846626 13.4366391184573  8.61684327941997 13.3126721763085  C 8.58337981037368 13.1887052341598  8.51831195389478 13.1037649219467  8.42163970998327 13.0578512396694  C 8.31753113961703 13.0119375573921  8.21156348763711 13.014233241506  8.1037367540435 13.064738292011  C 7.9959100204499 13.1152433425161  7.91596951106154 13.2001836547291  7.86391522587842 13.3195592286501  C 7.73749767614798 13.6042240587695  7.78583379810374 13.8108356290174  8.00892359174568 13.9393939393939  C 8.11303216211192 13.9853076216713  8.22085889570552 13.9830119375574  8.33240379252649 13.9325068870523  Z M 10.4907975460123 12.5275482093664  C 10.844023052612 13.3585858585859  10.8533184606804 14.2332415059688  10.5186837702175 15.1515151515152  C 10.1840490797546 16.0881542699725  9.59657928983082 16.7768595041322  8.75627440044618 17.2176308539945  C 7.91596951106154 17.6584022038567  7.08310094813162 17.7134986225895  6.25766871165644 17.3829201101928  C 5.46198178100019 17.0707070707071  4.91355270496375 16.489898989899  4.61238148354713 15.6404958677686  C 4.31121026213051 14.7910927456382  4.33537832310838 13.9302112029385  4.68488566648076 13.0578512396694  C 5.03439300985313 12.2038567493113  5.59769473879903 11.5656565656566  6.37479085331846 11.1432506887052  C 7.15188696783789 10.7208448117539  7.93456032719836 10.633608815427  8.72281093139989 10.8815426997245  C 9.54824316787507 11.147842056933  10.1375720394125 11.6965105601469  10.4907975460123 12.5275482093664  Z M 12.5209146681539 16.5909090909091  C 13.6103364937721 15.5027548209366  14.102993121398 14.2883379247016  13.9988845510318 12.9476584022039  C 13.9319576129392 12.0661157024793  13.6010410857037 11.2855831037649  13.0061349693252 10.6060606060606  C 12.4112288529466 9.92653810835629  11.6359918200409 9.42607897153352  10.6804238706079 9.10468319559229  C 9.72485592117494 8.78328741965106  8.70422011526306 8.68686868686869  7.61851645287228 8.81542699724518  C 5.96021565346719 9.02662993572084  4.58635434095557 9.67630853994491  3.49693251533742 10.7644628099174  C 2.40751068971928 11.8526170798898  1.91485406209333 13.0670339761249  2.01896263245956 14.4077134986226  C 2.08588957055215 15.2892561983471  2.41680609778769 16.0697887970615  3.0117122141662 16.7493112947658  C 3.60661833054471 17.4288337924702  4.38185536345046 17.9292929292929  5.33742331288344 18.2506887052342  C 6.29299126231642 18.5720844811754  7.3136270682283 18.6685032139578  8.39933073061907 18.5399449035813  C 10.0576315300242 18.3287419651056  11.4314928425358 17.6790633608815  12.5209146681539 16.5909090909091  Z M 17.0552147239264 11.3980716253444  C 17.3080498233873 11.8801652892562  17.4344673731177 12.415059687787  17.4344673731177 13.0027548209366  C 17.4344673731177 13.6271808999082  17.2968953337052 14.2676767676768  17.0217512548801 14.9242424242424  C 16.746607176055 15.5808080808081  16.3413273842722 16.2098255280073  15.8059118795315 16.8112947658402  C 15.2704963747909 17.4127640036731  14.6439858709797 17.9522497704316  13.9263803680982 18.4297520661157  C 13.2087748652166 18.9072543617998  12.3684699758319 19.2883379247016  11.4054656999442 19.5730027548209  C 10.4424614240565 19.8576675849403  9.4366982710541 20  8.38817624093698 20  C 7.33965421081986 20  6.31715932329429 19.846189164371  5.32069157836029 19.538567493113  C 4.32422383342629 19.2309458218549  3.43000557724484 18.8039485766759  2.63803680981595 18.2575757575758  C 1.84606804238706 17.7112029384757  1.20840304889385 17.0179063360882  0.725041829336308 16.1776859504132  C 0.241680609778769 15.3374655647383  0 14.4214876033058  0 13.4297520661157  C 0 12.3737373737374  0.258412344301915 11.2488521579431  0.775237032905745 10.0550964187328  C 1.29206172150957 8.8613406795225  2.0263989589143 7.67676767676767  2.97824874511991 6.50137741046832  C 4.23498791596951 4.94949494949495  5.50474065811489 3.86593204775023  6.78750697155605 3.25068870523416  C 8.07027328499721 2.63544536271809  8.98680052054285 2.66758494031221  9.53708867819297 3.34710743801653  C 10.0204498977505 3.9348025711662  10.0948131622978 4.89439853076217  9.76017847183491 6.22589531680441  C 9.73043316601599 6.3544536271809  9.72671500278862 6.44628099173554  9.74902398215282 6.50137741046832  C 9.77133296151701 6.5564738292011  9.80851459379067 6.58861340679522  9.86056887897379 6.59779614325069  C 9.91262316415691 6.60697887970615  9.96653653095371 6.60468319559229  10.0223089793642 6.59090909090909  C 10.0780814277747 6.57713498622589  10.1282766313441 6.56106519742883  10.1728945900725 6.54269972451791  L 10.2398215281651 6.51515151515152  C 11.2734709053727 5.97337006427916  12.1881390593047 5.70247933884298  12.983825989961 5.70247933884298  C 13.7795129206172 5.70247933884298  14.3483918944042 5.98255280073462  14.6904629113218 6.54269972451791  C 15.0250976017847 7.12121212121212  15.0250976017847 7.93847566574839  14.6904629113218 8.99449035812672  C 14.6755902584123 9.11386593204775  14.6588585238892 9.20569329660239  14.6402677077524 9.26997245179063  C 14.6216768916155 9.33425160697888  14.6384086261387 9.39164370982553  14.6904629113218 9.44214876033058  C 14.7425171965049 9.49265381083563  14.7871351552333 9.52708907254362  14.824316787507 9.54545454545455  C 14.8614984197806 9.56382001836547  14.9247071946458 9.59136822773186  15.0139431121026 9.62809917355372  C 15.4378137200223 9.79338842975207  15.820784532441 10.0091827364555  16.1628555493586 10.2754820936639  C 16.5049265662763 10.5417814508724  16.8023796244655 10.9159779614325  17.0552147239264 11.3980716253444  Z M 15.4824316787507 3.50550964187328  C 15.9211749395798 3.67539026629936  16.2967094255438 3.97612488521579  16.6090351366425 4.40771349862259  C 16.9213608477412 4.83930211202938  17.1240007436326 5.33746556473829  17.2169548243168 5.90220385674931  C 17.3099089050009 6.46694214876033  17.2857408440231 7.00642791551882  17.1444506413832 7.52066115702479  C 17.0849600297453 7.73186409550046  16.975274214538 7.88797061524334  16.8153931957613 7.98898071625344  C 16.6555121769846 8.08999081726354  16.4900539133668 8.10835629017447  16.319018404908 8.04407713498622  C 16.1479828964492 7.97061524334252  16.0215653467187 7.83516988062442  15.9397657557167 7.63774104683196  C 15.8579661647146 7.44031221303949  15.8430935118052 7.23599632690542  15.8951477969883 7.02479338842975  C 16.0438743260829 6.44628099173554  15.9546384086261 5.9366391184573  15.627440044618 5.49586776859504  C 15.3002416806098 5.05509641873278  14.9023982152817 4.89439853076217  14.4339096486336 5.0137741046832  C 14.25543781372 5.05968778696051  14.0881204684886 5.02295684113866  13.9319576129392 4.90358126721763  C 13.7757947573898 4.7842056932966  13.6828406767057 4.61432506887052  13.6530953708868 4.39393939393939  C 13.6159137386131 4.17355371900826  13.6456590444321 3.9692378328742  13.7423312883436 3.78099173553719  C 13.8390035322551 3.59274563820018  13.9765755716676 3.47566574839302  14.1550474065811 3.4297520661157  C 14.601226993865 3.31037649219467  15.0436884179215 3.3356290174472  15.4824316787507 3.50550964187328  Z M 16.3078639152259 0.3099173553719  C 17.2076594162484 0.654269972451791  17.9810373675404 1.27180899908172  18.6279977691021 2.16253443526171  C 19.2749581706637 3.04407713498623  19.6932515337423 4.06565656565656  19.882877858338 5.22727272727273  C 20.0725041829336 6.38888888888889  20.0223089793642 7.49770431588613  19.7322922476297 8.55371900826446  C 19.6653653095371 8.80165289256198  19.5389477598067 8.98530762167126  19.3530395984384 9.10468319559229  C 19.1671314370701 9.22405876951331  18.9737869492471 9.24242424242424  18.7730061349693 9.15977961432507  C 18.5722253206916 9.07713498622589  18.423498791597 8.92102846648301  18.3268265476854 8.69146005509642  C 18.2301543037739 8.46189164370982  18.2115634876371 8.22314049586777  18.271054099275 7.97520661157025  C 18.4792712400074 7.22222222222222  18.5164528722811 6.43250688705234  18.3825989960959 5.60606060606061  C 18.2487451199108 4.77961432506887  17.9512920617215 4.05417814508724  17.4902398215282 3.4297520661157  C 17.0291875813348 2.79614325068871  16.4788994236847 2.35766758494031  15.8393753485778 2.11432506887052  C 15.1998512734709 1.87098255280073  14.5566090351366 1.83195592286501  13.909648633575 1.99724517906336  C 13.7014314928425 2.05234159779614  13.5080870050195 2.00872359963269  13.329615170106 1.866391184573  C 13.1511433351924 1.72405876951331  13.0395984383714 1.52433425160698  12.9949804796431 1.26721763085399  C 12.9503625209147 1.01010101010101  12.9856850715746 0.773645546372816  13.100948131623 0.557851239669422  C 13.2162111916713 0.342056932966024  13.3779512920617 0.206611570247934  13.5861684327942 0.151515151515151  C 14.5008365867262 -0.0872359963269087  15.4080684142034 -0.0344352617079879  16.3078639152259 0.3099173553719  Z " fill-rule="nonzero" fill="#d7d7d7" stroke="none" transform="matrix(1 0 0 1 100 95 )" />
  </g>
</svg>