<?xml version="1.0" encoding="utf-8"?>
<svg version="1.1" xmlns:xlink="http://www.w3.org/1999/xlink" width="28px" height="33px" xmlns="http://www.w3.org/2000/svg">
  <g transform="matrix(1 0 0 1 -891 -99 )">
    <path d="M 27.8140625 23.8583984375  C 27.9380208333333 24.9397786458333  28 26.0891927083333  28 27.306640625  C 28 28.8678385416667  27.5442708333333 30.20703125  26.6328125 31.32421875  C 25.7213541666667 32.44140625  24.6239583333333 33  23.340625 33  L 4.659375 33  C 3.37604166666667 33  2.27864583333333 32.44140625  1.3671875 31.32421875  C 0.455729166666667 30.20703125  0 28.8678385416667  0 27.306640625  C 0 26.0891927083333  0.0619791666666668 24.9397786458333  0.1859375 23.8583984375  C 0.309895833333333 22.7770182291667  0.539583333333333 21.6884765625  0.875 20.5927734375  C 1.21041666666667 19.4970703125  1.63697916666667 18.5589192708333  2.1546875 17.7783203125  C 2.67239583333333 16.9977213541667  3.3578125 16.3603515625  4.2109375 15.8662109375  C 5.0640625 15.3720703125  6.04479166666667 15.125  7.153125 15.125  C 9.06354166666667 16.9583333333333  11.3458333333333 17.875  14 17.875  C 16.6541666666667 17.875  18.9364583333333 16.9583333333333  20.846875 15.125  C 21.9552083333333 15.125  22.9359375 15.3720703125  23.7890625 15.8662109375  C 24.6421875 16.3603515625  25.3276041666667 16.9977213541667  25.8453125 17.7783203125  C 26.3630208333333 18.5589192708333  26.7895833333333 19.4970703125  27.125 20.5927734375  C 27.4604166666667 21.6884765625  27.6901041666667 22.7770182291667  27.8140625 23.8583984375  Z M 19.9390625 2.4169921875  C 21.5796875 4.0283203125  22.4 5.97265625  22.4 8.25  C 22.4 10.52734375  21.5796875 12.4716796875  19.9390625 14.0830078125  C 18.2984375 15.6943359375  16.31875 16.5  14 16.5  C 11.68125 16.5  9.7015625 15.6943359375  8.0609375 14.0830078125  C 6.4203125 12.4716796875  5.6 10.52734375  5.6 8.25  C 5.6 5.97265625  6.4203125 4.0283203125  8.0609375 2.4169921875  C 9.7015625 0.8056640625  11.68125 0  14 0  C 16.31875 0  18.2984375 0.8056640625  19.9390625 2.4169921875  Z " fill-rule="nonzero" fill="#ffffff" stroke="none" transform="matrix(1 0 0 1 891 99 )" />
  </g>
</svg>