<?xml version="1.0" encoding="utf-8"?>
<svg version="1.1" xmlns:xlink="http://www.w3.org/1999/xlink" width="33px" height="33px" xmlns="http://www.w3.org/2000/svg">
  <g transform="matrix(1 0 0 1 -946 -98 )">
    <path d="M 20.23828125 20.23828125  C 21.9768629807692 18.4996995192308  22.8461538461538 16.4074519230769  22.8461538461538 13.9615384615385  C 22.8461538461538 11.515625  21.9768629807692 9.42337740384615  20.23828125 7.68479567307692  C 18.4996995192308 5.94621394230769  16.4074519230769 5.07692307692308  13.9615384615385 5.07692307692308  C 11.515625 5.07692307692308  9.42337740384616 5.94621394230769  7.68479567307692 7.68479567307692  C 5.94621394230769 9.42337740384615  5.07692307692308 11.515625  5.07692307692308 13.9615384615385  C 5.07692307692308 16.4074519230769  5.94621394230769 18.4996995192308  7.68479567307692 20.23828125  C 9.42337740384616 21.9768629807692  11.515625 22.8461538461538  13.9615384615385 22.8461538461538  C 16.4074519230769 22.8461538461538  18.4996995192308 21.9768629807692  20.23828125 20.23828125  Z M 32.2662259615385 28.6766826923077  C 32.7554086538462 29.1658653846154  33 29.7608173076923  33 30.4615384615385  C 33 31.1490384615385  32.7487980769231 31.7439903846154  32.2463942307692 32.2463942307692  C 31.7439903846154 32.7487980769231  31.1490384615385 33  30.4615384615385 33  C 29.7475961538462 33  29.1526442307692 32.7487980769231  28.6766826923077 32.2463942307692  L 21.8743990384615 25.4639423076923  C 19.5078125 27.1033653846154  16.8701923076923 27.9230769230769  13.9615384615385 27.9230769230769  C 12.0709134615385 27.9230769230769  10.2629206730769 27.5561899038462  8.53756009615384 26.8224158653846  C 6.81219951923077 26.0886418269231  5.32481971153846 25.0970552884615  4.07542067307692 23.84765625  C 2.82602163461538 22.5982572115385  1.83443509615385 21.1108774038462  1.10066105769231 19.3855168269231  C 0.366887019230769 17.66015625  0 15.8521634615385  0 13.9615384615385  C 0 12.0709134615385  0.366887019230769 10.2629206730769  1.10066105769231 8.53756009615384  C 1.83443509615385 6.81219951923077  2.82602163461538 5.32481971153846  4.07542067307692 4.07542067307692  C 5.32481971153846 2.82602163461539  6.81219951923077 1.83443509615385  8.53756009615384 1.10066105769231  C 10.2629206730769 0.366887019230768  12.0709134615385 0  13.9615384615385 0  C 15.8521634615385 0  17.66015625 0.366887019230768  19.3855168269231 1.10066105769231  C 21.1108774038462 1.83443509615385  22.5982572115385 2.82602163461539  23.84765625 4.07542067307692  C 25.0970552884615 5.32481971153846  26.0886418269231 6.81219951923077  26.8224158653846 8.53756009615384  C 27.5561899038462 10.2629206730769  27.9230769230769 12.0709134615385  27.9230769230769 13.9615384615385  C 27.9230769230769 16.8701923076923  27.1033653846154 19.5078125  25.4639423076923 21.8743990384615  L 32.2662259615385 28.6766826923077  Z " fill-rule="nonzero" fill="#ffffff" stroke="none" transform="matrix(1 0 0 1 946 98 )" />
  </g>
</svg>