<?xml version="1.0" encoding="utf-8"?>
<svg version="1.1" xmlns:xlink="http://www.w3.org/1999/xlink" width="26px" height="26px" xmlns="http://www.w3.org/2000/svg">
  <g transform="matrix(1 0 0 1 -499 -1040 )">
    <path d="M 21.4466145833333 13.76171875  C 21.6497395833333 13.55859375  21.7513020833333 13.3046875  21.7513020833333 13  C 21.7513020833333 12.6953125  21.6497395833333 12.44140625  21.4466145833333 12.23828125  L 19.90625 10.6979166666667  L 13.7786458333333 4.5703125  C 13.5755208333333 4.3671875  13.3216145833333 4.265625  13.0169270833333 4.265625  C 12.7122395833333 4.265625  12.4583333333333 4.3671875  12.2552083333333 4.5703125  L 10.71484375 6.11067708333333  C 10.51171875 6.31380208333333  10.41015625 6.56770833333333  10.41015625 6.87239583333333  C 10.41015625 7.17708333333333  10.51171875 7.43098958333333  10.71484375 7.63411458333333  L 13.9140625 10.8333333333333  L 5.41666666666667 10.8333333333333  C 5.12326388888889 10.8333333333333  4.86935763888889 10.9405381944444  4.65494791666667 11.1549479166667  C 4.44053819444444 11.3693576388889  4.33333333333333 11.6232638888889  4.33333333333333 11.9166666666667  L 4.33333333333333 14.0833333333333  C 4.33333333333333 14.3767361111111  4.44053819444444 14.6306423611111  4.65494791666667 14.8450520833333  C 4.86935763888889 15.0594618055556  5.12326388888889 15.1666666666667  5.41666666666667 15.1666666666667  L 13.9140625 15.1666666666667  L 10.71484375 18.3658854166667  C 10.5004340277778 18.5802951388889  10.3932291666667 18.8342013888889  10.3932291666667 19.1276041666667  C 10.3932291666667 19.4210069444444  10.5004340277778 19.6749131944444  10.71484375 19.8893229166667  L 12.2552083333333 21.4296875  C 12.4583333333333 21.6328125  12.7122395833333 21.734375  13.0169270833333 21.734375  C 13.3216145833333 21.734375  13.5755208333333 21.6328125  13.7786458333333 21.4296875  L 19.90625 15.3020833333333  L 21.4466145833333 13.76171875  Z M 24.2565104166667 6.474609375  C 25.4188368055556 8.46636284722222  26 10.6414930555556  26 13  C 26 15.3585069444444  25.4188368055556 17.5336371527778  24.2565104166667 19.525390625  C 23.0941840277778 21.5171440972222  21.5171440972222 23.0941840277778  19.525390625 24.2565104166667  C 17.5336371527778 25.4188368055556  15.3585069444444 26  13 26  C 10.6414930555556 26  8.46636284722222 25.4188368055556  6.474609375 24.2565104166667  C 4.48285590277778 23.0941840277778  2.90581597222222 21.5171440972222  1.74348958333333 19.525390625  C 0.581163194444444 17.5336371527778  0 15.3585069444444  0 13  C 0 10.6414930555556  0.581163194444444 8.46636284722222  1.74348958333333 6.474609375  C 2.90581597222222 4.48285590277778  4.48285590277778 2.90581597222222  6.474609375 1.74348958333333  C 8.46636284722222 0.581163194444442  10.6414930555556 0  13 0  C 15.3585069444444 0  17.5336371527778 0.581163194444442  19.525390625 1.74348958333333  C 21.5171440972222 2.90581597222222  23.0941840277778 4.48285590277778  24.2565104166667 6.474609375  Z " fill-rule="nonzero" fill="#000000" stroke="none" transform="matrix(1 0 0 1 499 1040 )" />
  </g>
</svg>